<?xml version="1.0" encoding="UTF-8"?>
<svg id="Layer_1" data-name="Layer 1" xmlns="http://www.w3.org/2000/svg" viewBox="0 0 183.37 434.39">
  <defs>
    <style>
      .cls-1 {
        fill: #3d3d3d;
      }

      .cls-2 {
        fill: #666;
      }

      .cls-3 {
        fill: #818181;
      }

      .cls-4 {
        fill: #505050;
        opacity: 0;
      }

      .cls-5 {
        fill: #a4a4a4;
      }
    </style>
  </defs>
  <g>
    <rect class="cls-4" width="128.43" height="128.43"/>
    <g>
      <path class="cls-3" d="M126.12,92.42l-18.7-57.38c-.22-.69-.57-1.32-1.02-1.87-.61-.76-1.39-1.38-2.3-1.78L55.31,10.14c-1.09-.48-2.28-.61-3.41-.41-.87.15-1.71.49-2.45,1.01L4.57,42.27c-1.6,1.13-2.56,2.96-2.56,4.93v49.12c0,2.51,1.56,4.76,3.91,5.64l43.86,16.45c.25.09.51.16.76.22.44.1.9.16,1.35.16.53,0,1.05-.07,1.57-.21l68.51-18.48c1.59-.43,2.94-1.49,3.73-2.95.79-1.45.94-3.16.43-4.73Z"/>
      <path class="cls-2" d="M104.1,31.39L55.31,10.14c-1.09-.48-2.28-.61-3.41-.41l11.1,57.8,43.41-34.36c-.61-.76-1.39-1.38-2.3-1.78Z"/>
      <path class="cls-1" d="M126.12,92.42l-18.7-57.38c-.22-.69-.57-1.32-1.02-1.87l-43.41,34.36-12.46,51.09c.44.1.9.16,1.35.16.53,0,1.05-.07,1.57-.21l68.51-18.48c1.59-.43,2.94-1.49,3.73-2.95.79-1.45.94-3.16.43-4.73Z"/>
    </g>
  </g>
  <polygon class="cls-2" points="22.77 228.53 42.14 228.53 50.71 247.4 36.3 247.4 22.77 228.53"/>
  <path class="cls-3" d="M0,336.29l26.76-84.47h33.73l26.34,84.47h-26.61l-3.84-15.98h-26.37l-3.93,15.98H0ZM51.74,301.06l-8.42-34.94-8.59,34.94h17.01Z"/>
  <path class="cls-3" d="M112.25,336.29h-23.42v-87.42h23.42v87.42Z"/>
  <path class="cls-3" d="M151,269.4c20.53,0,32.37,10.34,32.37,28.26v38.63h-23.42v-15.83c-2.66,10.84-11.43,17.6-23.15,17.6-12.4,0-20.64-7.53-20.64-18.84,0-12.73,10.48-20.05,28.71-20.05h15.09v-1.51c0-7.21-3.22-11.22-9.54-11.22s-9.04,3.54-9.04,9.78h-23.3c0-16.6,12.52-26.82,32.93-26.82ZM148.61,310.63c-5.82,0-8.89,1.98-8.89,5.73s2.9,5.79,7.8,5.79c6.91,0,12.43-4.22,12.43-9.45v-2.07h-11.34Z"/>
  <polygon class="cls-5" points="158.12 266.74 143.71 266.74 152.27 247.87 171.64 247.87 158.12 266.74"/>
  <g>
    <path class="cls-3" d="M1.77,360.76h13.47c6.77,0,11.33,3.89,11.33,9.64s-4.57,9.65-11.33,9.65h-5.24v8.61H1.77v-27.9ZM14.91,373.67c2.19,0,3.42-1.17,3.42-3.26s-1.24-3.27-3.41-3.27h-4.92v6.53h4.91Z"/>
    <path class="cls-3" d="M37.41,388.66h-7.74v-21.51h7.74v8.08c.55-4.92,2.18-8.08,6.05-8.08h1.59v7.23h-3.54c-3.29,0-4.1,1.6-4.1,5.29v8.99Z"/>
    <path class="cls-3" d="M70.1,381.22c-1.24,4.98-5.37,8.03-10.78,8.03-6.64,0-11.16-4.59-11.16-11.35s4.47-11.34,11.05-11.34,10.97,4.55,10.97,11.34c0,.54-.03,1.12-.09,1.64h-14.68c.29,2.51,1.77,3.93,4.13,3.93,1.71,0,2.86-.75,3.52-2.25h7.03ZM63.04,375.73c-.43-2.39-1.68-3.55-3.78-3.55s-3.44,1.22-3.79,3.55h7.58Z"/>
    <path class="cls-3" d="M81.03,388.66h-7.74v-21.51h7.74v6.67c.77-4.85,3.1-7.26,7-7.26s5.94,2.44,6.27,7.6c.7-5.07,3.07-7.6,7.06-7.6,4.29,0,6.33,2.95,6.33,9.13v12.96h-7.74v-11.01c0-3.03-.88-4.48-2.72-4.48s-2.88,1.52-2.88,4.56v10.94h-7.74v-11.01c0-3.03-.88-4.48-2.72-4.48s-2.88,1.52-2.88,4.56v10.94Z"/>
    <rect class="cls-5" x="110.8" y="359.79" width="7.77" height="5.35"/>
    <rect class="cls-3" x="110.82" y="367.15" width="7.74" height="21.51"/>
    <path class="cls-3" d="M135.28,367.15h7.74v21.51h-7.74v-6.71c-.77,4.87-3.16,7.3-7.14,7.3-4.36,0-6.45-2.95-6.45-9.13v-12.96h7.74v11.01c0,3.02.92,4.48,2.84,4.48s3.01-1.52,3.01-4.56v-10.93Z"/>
    <path class="cls-3" d="M153.86,388.66h-7.74v-21.51h7.74v6.67c.77-4.85,3.1-7.26,7-7.26s5.94,2.44,6.27,7.6c.7-5.07,3.07-7.6,7.06-7.6,4.29,0,6.33,2.95,6.33,9.13v12.96h-7.74v-11.01c0-3.03-.88-4.48-2.72-4.48s-2.88,1.52-2.88,4.56v10.94h-7.74v-11.01c0-3.03-.88-4.48-2.72-4.48s-2.88,1.52-2.88,4.56v10.94Z"/>
    <g>
      <path class="cls-3" d="M13.94,427.62c2.91,0,4.56-1.75,5.1-5.42h8.15c-.95,7.56-5.95,12.19-13.25,12.19-8.08,0-13.94-5.66-13.94-14.53s5.86-14.53,13.94-14.53c7.3,0,12.3,4.63,13.25,12.19h-8.15c-.54-3.67-2.19-5.42-5.1-5.42-3.69,0-5.63,2.55-5.63,7.76s1.94,7.76,5.63,7.76Z"/>
      <path class="cls-3" d="M38.03,433.8h-7.73v-28.86h7.73v14.07c.77-4.86,3.16-7.29,7.14-7.29,4.37,0,6.44,2.94,6.44,9.12v12.96h-7.73v-11.01c0-3.03-.92-4.47-2.84-4.47s-3.01,1.52-3.01,4.55v10.93Z"/>
      <path class="cls-3" d="M66.22,411.72c6.78,0,10.68,3.41,10.68,9.33v12.75h-7.73v-5.23c-.88,3.58-3.77,5.81-7.64,5.81-4.09,0-6.81-2.49-6.81-6.22,0-4.2,3.46-6.62,9.48-6.62h4.98v-.5c0-2.38-1.06-3.7-3.15-3.7s-2.98,1.17-2.98,3.23h-7.69c0-5.48,4.13-8.85,10.87-8.85ZM65.43,425.33c-1.92,0-2.93.65-2.93,1.89s.96,1.91,2.57,1.91c2.28,0,4.1-1.39,4.1-3.12v-.68h-3.74Z"/>
      <path class="cls-3" d="M87.74,433.8h-7.73v-21.5h7.73v8.07c.55-4.91,2.17-8.07,6.04-8.07h1.59v7.22h-3.54c-3.29,0-4.09,1.6-4.09,5.28v8.99Z"/>
      <path class="cls-3" d="M109.77,427.79c1.76,0,2.65-1.03,3.01-2.87h7.69c-.7,5.75-4.96,9.47-10.7,9.47-6.55,0-11.29-4.41-11.29-11.34s4.74-11.33,11.29-11.33c5.74,0,10,3.7,10.7,9.47h-7.69c-.36-1.83-1.25-2.87-3.01-2.87-2.26,0-3.48,1.58-3.48,4.73s1.22,4.74,3.48,4.74Z"/>
      <path class="cls-3" d="M134.87,411.72c6.55,0,11.29,4.4,11.29,11.33s-4.74,11.34-11.29,11.34-11.29-4.41-11.29-11.34,4.75-11.33,11.29-11.33ZM134.87,427.79c2.28,0,3.48-1.58,3.48-4.74s-1.2-4.73-3.48-4.73-3.48,1.57-3.48,4.73,1.22,4.74,3.48,4.74Z"/>
      <path class="cls-3" d="M160.77,411.72c6.77,0,10.68,3.41,10.68,9.33v12.75h-7.73v-5.23c-.88,3.58-3.77,5.81-7.64,5.81-4.09,0-6.81-2.49-6.81-6.22,0-4.2,3.46-6.62,9.48-6.62h4.98v-.5c0-2.38-1.06-3.7-3.15-3.7s-2.98,1.17-2.98,3.23h-7.69c0-5.48,4.13-8.85,10.87-8.85ZM159.98,425.33c-1.92,0-2.93.65-2.93,1.89s.96,1.91,2.57,1.91c2.28,0,4.1-1.39,4.1-3.12v-.68h-3.74Z"/>
      <path class="cls-3" d="M182.29,433.8h-7.73v-28.86h7.73v28.86Z"/>
    </g>
  </g>
</svg>