<?xml version="1.0" encoding="UTF-8"?>
<svg id="Layer_1" data-name="Layer 1" xmlns="http://www.w3.org/2000/svg" viewBox="0 0 775.43 157.64">
  <defs>
    <style>
      .cls-1 {
        fill: #2b2b2b;
      }

      .cls-2 {
        fill: #3d3d3d;
      }

      .cls-3 {
        fill: #242424;
      }

      .cls-4 {
        fill: #505050;
        opacity: 0;
      }
    </style>
  </defs>
  <g>
    <rect class="cls-4" width="157.64" height="157.64"/>
    <g>
      <path class="cls-1" d="M154.81,113.44l-22.96-70.42c-.28-.85-.71-1.62-1.25-2.3-.74-.94-1.71-1.7-2.83-2.19l-59.89-26.08c-1.34-.58-2.8-.75-4.19-.51-1.07.18-2.09.6-3.01,1.24L5.6,51.88c-1.97,1.38-3.14,3.64-3.14,6.05v60.29c0,3.08,1.91,5.84,4.79,6.92l53.84,20.19c.31.11.62.2.94.27.54.13,1.1.2,1.66.2.65,0,1.29-.08,1.92-.26l84.09-22.68c1.96-.53,3.61-1.83,4.57-3.62.97-1.78,1.16-3.88.53-5.81Z"/>
      <path class="cls-3" d="M127.78,38.53l-59.89-26.08c-1.34-.58-2.8-.75-4.19-.51l13.63,70.95,53.28-42.18c-.74-.94-1.71-1.7-2.83-2.18Z"/>
      <path class="cls-2" d="M154.81,113.44l-22.96-70.42c-.28-.85-.71-1.62-1.25-2.3l-53.28,42.18-15.29,62.71c.54.13,1.1.2,1.66.2.65,0,1.29-.08,1.92-.26l84.09-22.68c1.96-.53,3.61-1.83,4.57-3.62.96-1.78,1.16-3.88.53-5.81Z"/>
    </g>
  </g>
  <g>
    <g>
      <g>
        <polygon class="cls-3" points="343.22 11.59 367 11.59 377.51 34.76 359.82 34.76 343.22 11.59"/>
        <path class="cls-1" d="M315.27,143.87l32.84-103.68h41.4l32.33,103.68h-32.66l-4.71-19.61h-32.37l-4.82,19.61h-32.01ZM378.78,100.62l-10.33-42.88-10.55,42.88h20.88Z"/>
      </g>
      <path class="cls-1" d="M453.05,143.87h-28.75V36.57h28.75v107.3Z"/>
      <g>
        <path class="cls-1" d="M500.61,61.76c25.19,0,39.73,12.69,39.73,34.69v47.42h-28.75v-19.43c-3.26,13.3-14.03,21.61-28.42,21.61-15.23,0-25.34-9.24-25.34-23.13,0-15.62,12.87-24.61,35.24-24.61h18.52v-1.85c0-8.85-3.95-13.77-11.71-13.77s-11.09,4.35-11.09,12h-28.6c0-20.37,15.37-32.92,40.42-32.92ZM497.68,112.37c-7.14,0-10.91,2.43-10.91,7.03s3.55,7.11,9.57,7.11c8.48,0,15.26-5.18,15.26-11.6v-2.54h-13.92Z"/>
        <polygon class="cls-2" points="509.35 58.5 491.66 58.5 502.17 35.33 525.95 35.33 509.35 58.5"/>
      </g>
    </g>
    <path class="cls-1" d="M571.18,62.54h15.24c7.66,0,12.81,4.4,12.81,10.9s-5.18,10.92-12.81,10.92h-5.93v9.75h-9.31v-31.56ZM586.05,77.14c2.47,0,3.87-1.32,3.87-3.69s-1.4-3.7-3.86-3.7h-5.56v7.38h5.55Z"/>
    <path class="cls-1" d="M611.51,94.1h-8.75v-24.34h8.75v9.14c.62-5.56,2.46-9.14,6.84-9.14h1.8v8.18h-4.01c-3.72,0-4.64,1.81-4.64,5.98v10.18Z"/>
    <path class="cls-1" d="M648.49,85.68c-1.4,5.63-6.07,9.08-12.2,9.08-7.52,0-12.63-5.2-12.63-12.84s5.05-12.82,12.5-12.82,12.42,5.14,12.42,12.82c0,.61-.03,1.27-.1,1.85h-16.61c.33,2.84,2,4.45,4.67,4.45,1.93,0,3.23-.85,3.98-2.55h7.96ZM640.51,79.48c-.49-2.7-1.9-4.02-4.28-4.02s-3.9,1.38-4.29,4.02h8.58Z"/>
    <path class="cls-1" d="M660.85,94.1h-8.75v-24.34h8.75v7.55c.87-5.49,3.51-8.21,7.92-8.21s6.72,2.76,7.1,8.6c.79-5.74,3.48-8.6,7.99-8.6,4.86,0,7.16,3.33,7.16,10.33v14.67h-8.75v-12.46c0-3.43-.99-5.07-3.08-5.07s-3.26,1.72-3.26,5.15v12.37h-8.75v-12.46c0-3.43-.99-5.07-3.08-5.07s-3.26,1.72-3.26,5.15v12.37Z"/>
    <rect class="cls-2" x="694.54" y="61.43" width="8.8" height="6.05"/>
    <rect class="cls-1" x="694.57" y="69.76" width="8.75" height="24.34"/>
    <path class="cls-1" d="M722.23,69.76h8.75v24.34h-8.75v-7.59c-.87,5.51-3.58,8.26-8.08,8.26-4.93,0-7.29-3.33-7.29-10.33v-14.67h8.75v12.46c0,3.42,1.04,5.07,3.21,5.07s3.41-1.72,3.41-5.15v-12.37Z"/>
    <path class="cls-1" d="M743.25,94.1h-8.75v-24.34h8.75v7.55c.87-5.49,3.51-8.21,7.92-8.21s6.72,2.76,7.1,8.6c.79-5.74,3.48-8.6,7.99-8.6,4.86,0,7.16,3.33,7.16,10.33v14.67h-8.75v-12.46c0-3.43-.99-5.07-3.08-5.07s-3.26,1.72-3.26,5.15v12.37h-8.75v-12.46c0-3.43-.99-5.07-3.08-5.07s-3.26,1.72-3.26,5.15v12.37Z"/>
    <path class="cls-1" d="M584.95,138.18c3.29,0,5.16-1.99,5.77-6.13h9.22c-1.07,8.55-6.73,13.79-14.99,13.79-9.14,0-15.77-6.41-15.77-16.43s6.63-16.43,15.77-16.43c8.26,0,13.92,5.24,14.99,13.79h-9.22c-.61-4.15-2.48-6.13-5.77-6.13-4.18,0-6.37,2.89-6.37,8.78s2.19,8.78,6.37,8.78Z"/>
    <path class="cls-1" d="M612.2,145.17h-8.75v-32.65h8.75v15.92c.87-5.5,3.57-8.25,8.07-8.25,4.94,0,7.29,3.33,7.29,10.32v14.66h-8.75v-12.45c0-3.43-1.04-5.06-3.21-5.06s-3.41,1.72-3.41,5.15v12.36Z"/>
    <path class="cls-1" d="M644.1,120.19c7.67,0,12.09,3.86,12.09,10.55v14.43h-8.75v-5.91c-.99,4.05-4.27,6.57-8.65,6.57-4.63,0-7.71-2.81-7.71-7.04,0-4.75,3.91-7.49,10.72-7.49h5.64v-.56c0-2.69-1.2-4.19-3.56-4.19s-3.37,1.32-3.37,3.65h-8.7c0-6.2,4.68-10.01,12.3-10.01ZM643.21,135.59c-2.17,0-3.32.74-3.32,2.14s1.08,2.16,2.91,2.16c2.58,0,4.64-1.58,4.64-3.53v-.77h-4.24Z"/>
    <path class="cls-1" d="M668.45,145.17h-8.75v-24.32h8.75v9.13c.62-5.56,2.46-9.13,6.84-9.13h1.8v8.17h-4c-3.72,0-4.63,1.81-4.63,5.98v10.17Z"/>
    <path class="cls-1" d="M693.37,138.37c2,0,3-1.17,3.41-3.24h8.7c-.79,6.51-5.61,10.71-12.11,10.71-7.41,0-12.77-4.99-12.77-12.83s5.36-12.82,12.77-12.82c6.5,0,11.32,4.19,12.11,10.71h-8.7c-.41-2.07-1.41-3.24-3.41-3.24-2.56,0-3.94,1.79-3.94,5.35s1.38,5.36,3.94,5.36Z"/>
    <path class="cls-1" d="M721.77,120.19c7.41,0,12.77,4.97,12.77,12.82s-5.36,12.83-12.77,12.83-12.77-4.99-12.77-12.83,5.37-12.82,12.77-12.82ZM721.77,138.37c2.58,0,3.94-1.79,3.94-5.36s-1.36-5.35-3.94-5.35-3.94,1.78-3.94,5.35,1.38,5.36,3.94,5.36Z"/>
    <path class="cls-1" d="M751.07,120.19c7.66,0,12.09,3.86,12.09,10.55v14.43h-8.75v-5.91c-.99,4.05-4.27,6.57-8.65,6.57-4.63,0-7.71-2.81-7.71-7.04,0-4.75,3.92-7.49,10.72-7.49h5.64v-.56c0-2.69-1.2-4.19-3.56-4.19s-3.38,1.32-3.38,3.65h-8.7c0-6.2,4.68-10.01,12.3-10.01ZM750.18,135.59c-2.17,0-3.32.74-3.32,2.14s1.08,2.16,2.91,2.16c2.58,0,4.64-1.58,4.64-3.53v-.77h-4.24Z"/>
    <path class="cls-1" d="M775.43,145.17h-8.75v-32.65h8.75v32.65Z"/>
  </g>
</svg>