<?xml version="1.0" encoding="UTF-8"?>
<svg id="Layer_1" data-name="Layer 1" xmlns="http://www.w3.org/2000/svg" viewBox="0 0 231.66 548.78">
  <defs>
    <style>
      .cls-1 {
        fill: #2b2b2b;
      }

      .cls-2 {
        fill: #3d3d3d;
      }

      .cls-3 {
        fill: #242424;
      }

      .cls-4 {
        fill: #505050;
        opacity: 0;
      }
    </style>
  </defs>
  <g>
    <rect class="cls-4" width="162.25" height="162.25"/>
    <g>
      <path class="cls-1" d="M159.34,116.76l-23.63-72.48c-.28-.87-.73-1.67-1.28-2.37-.77-.96-1.76-1.75-2.91-2.25l-61.64-26.84c-1.38-.6-2.88-.77-4.31-.52-1.1.19-2.16.61-3.1,1.27L5.77,53.4c-2.03,1.42-3.23,3.75-3.23,6.22v62.06c0,3.17,1.97,6.01,4.93,7.12l55.42,20.78c.32.12.64.21.96.28.56.13,1.13.2,1.71.2.67,0,1.33-.09,1.98-.26l86.55-23.34c2.01-.54,3.72-1.89,4.71-3.72.99-1.83,1.19-3.99.54-5.98Z"/>
      <path class="cls-3" d="M131.51,39.66l-61.64-26.84c-1.38-.6-2.88-.77-4.31-.52l14.03,73.03,54.84-43.41c-.77-.96-1.76-1.75-2.91-2.25Z"/>
      <path class="cls-2" d="M159.34,116.76l-23.63-72.48c-.28-.87-.73-1.67-1.28-2.37l-54.84,43.41-15.74,64.54c.56.13,1.13.2,1.71.2.67,0,1.33-.09,1.98-.26l86.55-23.34c2.01-.54,3.72-1.89,4.71-3.72.99-1.83,1.19-3.99.54-5.98Z"/>
    </g>
  </g>
  <g>
    <g>
      <polygon class="cls-3" points="28.77 288.71 53.24 288.71 64.06 312.55 45.85 312.55 28.77 288.71"/>
      <path class="cls-1" d="M0,424.85l33.8-106.71h42.61l33.28,106.71h-33.62l-4.85-20.18h-33.32l-4.96,20.18H0ZM65.37,380.34l-10.63-44.14-10.86,44.14h21.49Z"/>
    </g>
    <path class="cls-1" d="M141.81,424.85h-29.59v-110.44h29.59v110.44Z"/>
    <g>
      <path class="cls-1" d="M190.77,340.34c25.93,0,40.89,13.06,40.89,35.71v48.8h-29.59v-20c-3.36,13.69-14.44,22.24-29.25,22.24-15.67,0-26.08-9.52-26.08-23.8,0-16.08,13.24-25.33,36.27-25.33h19.07v-1.9c0-9.1-4.07-14.18-12.05-14.18s-11.42,4.48-11.42,12.35h-29.44c0-20.97,15.82-33.88,41.6-33.88ZM187.74,392.43c-7.35,0-11.23,2.5-11.23,7.24s3.66,7.31,9.85,7.31c8.73,0,15.71-5.34,15.71-11.94v-2.61h-14.33Z"/>
      <polygon class="cls-2" points="199.76 336.99 181.55 336.99 192.37 313.14 216.85 313.14 199.76 336.99"/>
    </g>
  </g>
  <g>
    <g>
      <path class="cls-1" d="M2.24,455.77h17.02c8.55,0,14.31,4.92,14.31,12.18s-5.78,12.19-14.31,12.19h-6.62v10.88H2.24v-35.25ZM18.83,472.07c2.76,0,4.33-1.48,4.33-4.12s-1.57-4.13-4.31-4.13h-6.21v8.24h6.2Z"/>
      <path class="cls-1" d="M47.26,491.01h-9.77v-27.17h9.77v10.2c.69-6.21,2.75-10.2,7.64-10.2h2.01v9.13h-4.47c-4.15,0-5.18,2.02-5.18,6.68v11.36Z"/>
      <path class="cls-1" d="M88.55,481.61c-1.57,6.29-6.78,10.14-13.62,10.14-8.39,0-14.1-5.8-14.1-14.33s5.64-14.32,13.96-14.32,13.86,5.74,13.86,14.32c0,.68-.04,1.42-.11,2.07h-18.55c.37,3.17,2.23,4.97,5.21,4.97,2.16,0,3.61-.95,4.45-2.85h8.89ZM79.64,474.68c-.54-3.02-2.12-4.49-4.78-4.49s-4.35,1.54-4.79,4.49h9.58Z"/>
      <path class="cls-1" d="M102.36,491.01h-9.77v-27.17h9.77v8.43c.97-6.12,3.92-9.17,8.85-9.17s7.51,3.08,7.92,9.6c.89-6.41,3.88-9.6,8.92-9.6,5.42,0,8,3.72,8,11.54v16.38h-9.77v-13.91c0-3.83-1.11-5.66-3.44-5.66s-3.64,1.92-3.64,5.76v13.82h-9.77v-13.91c0-3.83-1.11-5.66-3.44-5.66s-3.64,1.92-3.64,5.76v13.82Z"/>
      <g>
        <rect class="cls-2" x="139.98" y="454.53" width="9.82" height="6.75"/>
        <rect class="cls-1" x="140.01" y="463.84" width="9.77" height="27.17"/>
      </g>
      <path class="cls-1" d="M170.9,463.84h9.77v27.17h-9.77v-8.48c-.97,6.15-3.99,9.22-9.02,9.22-5.51,0-8.15-3.72-8.15-11.54v-16.38h9.77v13.91c0,3.82,1.16,5.66,3.59,5.66s3.81-1.92,3.81-5.76v-13.81Z"/>
      <path class="cls-1" d="M194.37,491.01h-9.77v-27.17h9.77v8.43c.97-6.12,3.92-9.17,8.85-9.17s7.51,3.08,7.92,9.6c.89-6.41,3.88-9.6,8.92-9.6,5.42,0,8,3.72,8,11.54v16.38h-9.77v-13.91c0-3.83-1.11-5.66-3.44-5.66s-3.64,1.92-3.64,5.76v13.82h-9.77v-13.91c0-3.83-1.11-5.66-3.44-5.66s-3.64,1.92-3.64,5.76v13.82Z"/>
    </g>
    <g>
      <path class="cls-1" d="M17.61,540.23c3.67,0,5.76-2.22,6.44-6.85h10.3c-1.19,9.54-7.51,15.39-16.74,15.39-10.21,0-17.61-7.16-17.61-18.35s7.4-18.35,17.61-18.35c9.22,0,15.54,5.85,16.74,15.39h-10.3c-.68-4.63-2.77-6.85-6.44-6.85-4.67,0-7.12,3.23-7.12,9.8s2.45,9.8,7.12,9.8Z"/>
      <path class="cls-1" d="M48.04,548.04h-9.77v-36.45h9.77v17.77c.97-6.15,3.99-9.21,9.01-9.21,5.52,0,8.14,3.72,8.14,11.53v16.37h-9.77v-13.9c0-3.83-1.16-5.65-3.58-5.65s-3.81,1.92-3.81,5.75v13.81Z"/>
      <path class="cls-1" d="M83.66,520.15c8.56,0,13.5,4.31,13.5,11.79v16.11h-9.77v-6.6c-1.11,4.52-4.77,7.34-9.66,7.34-5.17,0-8.61-3.14-8.61-7.86,0-5.31,4.37-8.36,11.97-8.36h6.29v-.63c0-3.01-1.34-4.68-3.98-4.68s-3.77,1.48-3.77,4.08h-9.72c0-6.92,5.22-11.18,13.73-11.18ZM82.66,537.34c-2.43,0-3.71.83-3.71,2.39s1.21,2.41,3.25,2.41c2.88,0,5.18-1.76,5.18-3.94v-.86h-4.73Z"/>
      <path class="cls-1" d="M110.85,548.04h-9.77v-27.16h9.77v10.2c.69-6.21,2.75-10.2,7.64-10.2h2.01v9.13h-4.47c-4.15,0-5.17,2.02-5.17,6.68v11.35Z"/>
      <path class="cls-1" d="M138.68,540.44c2.23,0,3.35-1.31,3.81-3.62h9.72c-.89,7.27-6.27,11.96-13.52,11.96-8.28,0-14.26-5.57-14.26-14.32s5.99-14.31,14.26-14.31c7.25,0,12.64,4.68,13.52,11.96h-9.72c-.46-2.32-1.58-3.62-3.81-3.62-2.86,0-4.4,2-4.4,5.97s1.54,5.99,4.4,5.99Z"/>
      <path class="cls-1" d="M170.39,520.15c8.28,0,14.26,5.55,14.26,14.31s-5.99,14.32-14.26,14.32-14.26-5.57-14.26-14.32,6-14.31,14.26-14.31ZM170.39,540.44c2.88,0,4.4-2,4.4-5.99s-1.51-5.97-4.4-5.97-4.4,1.98-4.4,5.97,1.54,5.99,4.4,5.99Z"/>
      <path class="cls-1" d="M203.11,520.15c8.56,0,13.5,4.31,13.5,11.79v16.11h-9.77v-6.6c-1.11,4.52-4.77,7.34-9.66,7.34-5.17,0-8.61-3.14-8.61-7.86,0-5.31,4.37-8.36,11.97-8.36h6.29v-.63c0-3.01-1.34-4.68-3.98-4.68s-3.77,1.48-3.77,4.08h-9.72c0-6.92,5.22-11.18,13.73-11.18ZM202.11,537.34c-2.43,0-3.71.83-3.71,2.39s1.21,2.41,3.25,2.41c2.88,0,5.18-1.76,5.18-3.94v-.86h-4.73Z"/>
      <path class="cls-1" d="M230.3,548.04h-9.77v-36.45h9.77v36.45Z"/>
    </g>
  </g>
</svg>