<?xml version="1.0" encoding="UTF-8"?>
<svg id="Layer_1" data-name="Layer 1" xmlns="http://www.w3.org/2000/svg" viewBox="0 0 606.31 123.26">
  <defs>
    <style>
      .cls-1 {
        fill: #3d3d3d;
      }

      .cls-2 {
        fill: #666;
      }

      .cls-3 {
        fill: #818181;
      }

      .cls-4 {
        fill: #505050;
        opacity: 0;
      }

      .cls-5 {
        fill: #a4a4a4;
      }
    </style>
  </defs>
  <rect class="cls-4" width="123.26" height="123.26"/>
  <path class="cls-3" d="M121.05,88.7l-17.95-55.07c-.22-.66-.55-1.27-.97-1.8-.58-.73-1.33-1.33-2.21-1.71L53.08,9.74c-1.05-.46-2.19-.58-3.28-.4-.83.14-1.64.47-2.35.97L4.38,40.57c-1.54,1.08-2.46,2.85-2.46,4.73v47.14c0,2.41,1.49,4.56,3.75,5.41l42.1,15.79c.24.09.49.16.73.21.43.1.86.15,1.3.15.51,0,1.01-.07,1.5-.2l65.75-17.73c1.53-.41,2.82-1.43,3.58-2.83.75-1.39.9-3.03.41-4.54Z"/>
  <path class="cls-2" d="M99.91,30.13L53.08,9.74c-1.05-.46-2.19-.58-3.28-.4l10.66,55.48,41.66-32.98c-.58-.73-1.33-1.33-2.21-1.71Z"/>
  <path class="cls-1" d="M121.05,88.7l-17.95-55.07c-.22-.66-.55-1.27-.97-1.8l-41.66,32.98-11.95,49.03c.43.1.86.15,1.3.15.51,0,1.01-.07,1.5-.2l65.75-17.73c1.53-.41,2.82-1.43,3.58-2.83.75-1.39.9-3.03.41-4.54Z"/>
  <polygon class="cls-2" points="268.36 9.06 286.96 9.06 295.18 27.18 281.35 27.18 268.36 9.06"/>
  <path class="cls-3" d="M246.51,112.49l25.68-81.06h32.37l25.28,81.06h-25.54l-3.68-15.33h-25.31l-3.77,15.33h-25.03ZM296.17,78.68l-8.08-33.53-8.25,33.53h16.33Z"/>
  <path class="cls-3" d="M354.24,112.49h-22.48V28.59h22.48v83.9Z"/>
  <path class="cls-3" d="M391.43,48.29c19.7,0,31.07,9.92,31.07,27.13v37.07h-22.48v-15.19c-2.55,10.4-10.97,16.89-22.22,16.89-11.91,0-19.81-7.23-19.81-18.08,0-12.22,10.06-19.25,27.55-19.25h14.48v-1.45c0-6.92-3.09-10.77-9.16-10.77s-8.67,3.4-8.67,9.38h-22.36c0-15.93,12.02-25.74,31.6-25.74ZM389.14,87.86c-5.58,0-8.53,1.9-8.53,5.5s2.78,5.56,7.48,5.56c6.63,0,11.93-4.05,11.93-9.07v-1.98h-10.88Z"/>
  <polygon class="cls-5" points="398.26 45.74 384.43 45.74 392.65 27.63 411.25 27.63 398.26 45.74"/>
  <path class="cls-3" d="M446.61,48.9h11.92c5.99,0,10.02,3.44,10.02,8.53s-4.05,8.53-10.02,8.53h-4.63v7.62h-7.28v-24.68ZM458.24,60.31c1.93,0,3.03-1.04,3.03-2.88s-1.1-2.89-3.02-2.89h-4.35v5.77h4.34Z"/>
  <path class="cls-3" d="M478.14,73.58h-6.84v-19.03h6.84v7.14c.48-4.35,1.92-7.14,5.35-7.14h1.41v6.39h-3.13c-2.91,0-3.62,1.42-3.62,4.68v7.96Z"/>
  <path class="cls-3" d="M507.06,66.99c-1.1,4.4-4.75,7.1-9.54,7.1-5.88,0-9.87-4.06-9.87-10.04s3.95-10.03,9.78-10.03,9.71,4.02,9.71,10.03c0,.47-.03.99-.08,1.45h-12.99c.26,2.22,1.56,3.48,3.65,3.48,1.51,0,2.53-.66,3.12-1.99h6.22ZM500.82,62.14c-.38-2.11-1.48-3.14-3.35-3.14s-3.05,1.08-3.36,3.14h6.7Z"/>
  <path class="cls-3" d="M516.73,73.58h-6.84v-19.03h6.84v5.9c.68-4.29,2.74-6.42,6.2-6.42s5.26,2.16,5.55,6.72c.62-4.49,2.72-6.72,6.25-6.72,3.8,0,5.6,2.61,5.6,8.08v11.47h-6.84v-9.74c0-2.68-.78-3.96-2.41-3.96s-2.55,1.35-2.55,4.03v9.67h-6.84v-9.74c0-2.68-.78-3.96-2.41-3.96s-2.55,1.35-2.55,4.03v9.67Z"/>
  <rect class="cls-5" x="543.07" y="48.03" width="6.88" height="4.73"/>
  <rect class="cls-3" x="543.09" y="54.55" width="6.84" height="19.03"/>
  <path class="cls-3" d="M564.72,54.55h6.84v19.03h-6.84v-5.94c-.68,4.31-2.8,6.45-6.32,6.45-3.86,0-5.7-2.61-5.7-8.08v-11.47h6.84v9.74c0,2.68.81,3.96,2.51,3.96s2.67-1.35,2.67-4.03v-9.67Z"/>
  <path class="cls-3" d="M581.15,73.58h-6.84v-19.03h6.84v5.9c.68-4.29,2.74-6.42,6.2-6.42s5.26,2.16,5.55,6.72c.62-4.49,2.72-6.72,6.25-6.72,3.8,0,5.6,2.61,5.6,8.08v11.47h-6.84v-9.74c0-2.68-.78-3.96-2.41-3.96s-2.55,1.35-2.55,4.03v9.67h-6.84v-9.74c0-2.68-.78-3.96-2.41-3.96s-2.55,1.35-2.55,4.03v9.67Z"/>
  <path class="cls-3" d="M457.38,108.04c2.57,0,4.04-1.55,4.51-4.8h7.21c-.84,6.68-5.26,10.78-11.72,10.78-7.15,0-12.33-5.01-12.33-12.85s5.18-12.85,12.33-12.85c6.46,0,10.88,4.1,11.72,10.78h-7.21c-.47-3.24-1.94-4.79-4.51-4.79-3.27,0-4.98,2.26-4.98,6.86s1.72,6.86,4.98,6.86Z"/>
  <path class="cls-3" d="M478.69,113.51h-6.84v-25.53h6.84v12.44c.68-4.3,2.79-6.45,6.31-6.45,3.86,0,5.7,2.6,5.7,8.07v11.46h-6.84v-9.74c0-2.68-.81-3.96-2.51-3.96s-2.66,1.35-2.66,4.03v9.67Z"/>
  <path class="cls-3" d="M503.63,93.98c5.99,0,9.45,3.02,9.45,8.25v11.28h-6.84v-4.62c-.78,3.16-3.34,5.14-6.76,5.14-3.62,0-6.03-2.2-6.03-5.5,0-3.72,3.06-5.86,8.38-5.86h4.41v-.44c0-2.1-.94-3.28-2.79-3.28s-2.64,1.03-2.64,2.85h-6.8c0-4.85,3.66-7.83,9.62-7.83ZM502.93,106.02c-1.7,0-2.6.58-2.6,1.67s.85,1.69,2.28,1.69c2.02,0,3.63-1.23,3.63-2.76v-.6h-3.31Z"/>
  <path class="cls-3" d="M522.67,113.51h-6.84v-19.02h6.84v7.14c.48-4.35,1.92-7.14,5.35-7.14h1.41v6.39h-3.13c-2.91,0-3.62,1.41-3.62,4.67v7.95Z"/>
  <path class="cls-3" d="M542.15,108.19c1.56,0,2.35-.91,2.66-2.54h6.8c-.62,5.09-4.39,8.37-9.47,8.37-5.8,0-9.99-3.9-9.99-10.03s4.19-10.02,9.99-10.02c5.08,0,8.85,3.28,9.47,8.37h-6.8c-.32-1.62-1.1-2.54-2.66-2.54-2,0-3.08,1.4-3.08,4.18s1.08,4.19,3.08,4.19Z"/>
  <path class="cls-3" d="M564.36,93.98c5.8,0,9.99,3.89,9.99,10.02s-4.19,10.03-9.99,10.03-9.99-3.9-9.99-10.03,4.2-10.02,9.99-10.02ZM564.36,108.19c2.02,0,3.08-1.4,3.08-4.19s-1.06-4.18-3.08-4.18-3.08,1.39-3.08,4.18,1.08,4.19,3.08,4.19Z"/>
  <path class="cls-3" d="M587.27,93.98c5.99,0,9.45,3.02,9.45,8.25v11.28h-6.84v-4.62c-.78,3.16-3.34,5.14-6.76,5.14-3.62,0-6.03-2.2-6.03-5.5,0-3.72,3.06-5.86,8.38-5.86h4.41v-.44c0-2.1-.94-3.28-2.79-3.28s-2.64,1.03-2.64,2.85h-6.8c0-4.85,3.66-7.83,9.62-7.83ZM586.57,106.02c-1.7,0-2.6.58-2.6,1.67s.85,1.69,2.28,1.69c2.02,0,3.63-1.23,3.63-2.76v-.6h-3.31Z"/>
  <path class="cls-3" d="M606.31,113.51h-6.84v-25.53h6.84v25.53Z"/>
</svg>